<svg width="435" height="110" viewBox="0 0 110 110" fill="none" xmlns="http://www.w3.org/2000/svg">
	<rect y="3.96002" width="47.1429" height="47.1429" rx="23.5714" fill="#DF3F40"/>
	<path fill-rule="evenodd" clip-rule="evenodd" d="M55 27.5315C55 14.5133 65.5533 3.96002 78.5714 3.96002C91.5896 3.96002 102.143 14.5133 102.143 27.5314V50.8683C102.143 50.9979 102.038 51.1029 101.908 51.1029H78.5714C65.5533 51.1029 55 40.5496 55 27.5315Z" fill="#00BCA6"/>
	<path d="M0 82.5315C0 69.5133 10.5533 58.96 23.5714 58.96C36.5896 58.96 47.1429 69.5133 47.1429 82.5314V105.868C47.1429 105.998 47.0378 106.103 46.9083 106.103H23.5714C10.5533 106.103 0 95.5496 0 82.5315Z" fill="#967DB8"/>
	<path d="M55 82.5315C55 69.5133 65.5533 58.96 78.5714 58.96C91.5896 58.96 102.143 69.5133 102.143 82.5314V105.868C102.143 105.998 102.038 106.103 101.908 106.103H55.2345C55.105 106.103 55 105.998 55 105.868V82.5315Z" fill="#EDC500"/>
</svg>
